<svg width="21" height="18" viewBox="0 0 21 18" fill="none" xmlns="http://www.w3.org/2000/svg">
<path d="M2.64013 10.0509L9.59274 16.5822C9.83223 16.8071 9.95198 16.9196 10.0932 16.9473C10.1568 16.9598 10.2222 16.9598 10.2857 16.9473C10.4269 16.9196 10.5467 16.8071 10.7862 16.5822L17.7388 10.0509C19.695 8.21329 19.9325 5.1893 18.2873 3.06877L17.9779 2.67004C16.0097 0.13328 12.0591 0.558714 10.6761 3.45635C10.4808 3.86566 9.89814 3.86566 9.70279 3.45635C8.31982 0.558714 4.36917 0.133284 2.401 2.67005L2.09164 3.06877C0.446401 5.1893 0.683951 8.21329 2.64013 10.0509Z" stroke="white" stroke-width="2"/>
</svg>
