<svg width="23" height="21" viewBox="0 0 23 21" fill="none" xmlns="http://www.w3.org/2000/svg">
<path d="M1.28125 10.3335L0.500381 9.7088L0.000625153 10.3335L0.500381 10.9582L1.28125 10.3335ZM10.2812 11.3335C10.8335 11.3335 11.2812 10.8858 11.2812 10.3335C11.2812 9.78121 10.8335 9.3335 10.2812 9.3335V10.3335V11.3335ZM5.28125 5.3335L4.50038 4.7088L0.500381 9.7088L1.28125 10.3335L2.06212 10.9582L6.06212 5.95819L5.28125 5.3335ZM1.28125 10.3335L0.500381 10.9582L4.50038 15.9582L5.28125 15.3335L6.06212 14.7088L2.06212 9.7088L1.28125 10.3335ZM1.28125 10.3335V11.3335H10.2812V10.3335V9.3335H1.28125V10.3335Z" fill="white"/>
<path d="M9.28125 6.46543V5.722C9.28125 4.10366 9.28125 3.29449 9.75521 2.735C10.2292 2.17551 11.0273 2.04248 12.6237 1.77643L14.2949 1.4979C17.538 0.957379 19.1595 0.687121 20.2204 1.58582C21.2812 2.48451 21.2812 4.12843 21.2812 7.41626V13.2507C21.2812 16.5386 21.2812 18.1825 20.2204 19.0812C19.1595 19.9799 17.538 19.7096 14.2949 19.1691L12.6237 18.8906C11.0273 18.6245 10.2292 18.4915 9.75521 17.932C9.28125 17.3725 9.28125 16.5633 9.28125 14.945V14.3995" stroke="white" stroke-width="2"/>
</svg>
